# xmcd CD database file
#
# Track frame offsets:
#	150
#	19292
#	33015
#	52537
#	64015
#	89247
#	105447
#	118435
#	136067
#	150072
#	169920
#
# Disc length: 2564 seconds
#
# Revision: 0
# Processed by: cddbd v1.5.2PL0 Copyright (c) Steve Scherf et al.
# Submitted via: CDex 1.70beta2
#
DISCID=810a020b
DTITLE=Esa Pethman - The Modern Sound of Finland
DYEAR=1965
DGENRE=Jazz
TTITLE0=Blues for Duke
TTITLE1=Shepherd Song
TTITLE2=Etude No. 1
TTITLE3=Mr. Peter
TTITLE4=Blues Fantasie
TTITLE5=The Flame
TTITLE6=Finnish Schnapps
TTITLE7=Lullaby
TTITLE8=Disillusion
TTITLE9=Al Secco
TTITLE10=Nina's Dream
EXTD=YEAR: 1965
EXTT0=
EXTT1=
EXTT2=
EXTT3=
EXTT4=
EXTT5=
EXTT6=
EXTT7=
EXTT8=
EXTT9=
EXTT10=
PLAYORDER=
